<?xml version="1.0" encoding="UTF-8"?>
<svg id="Layer_1" data-name="Layer 1" xmlns="http://www.w3.org/2000/svg" viewBox="0 0 100 16">
  <defs>
    <style>
      .cls-1 {
        fill: #fa0;
        stroke-width: 0px;
      }
    </style>
  </defs>
  <path class="cls-1" d="M3.61,15.94c-.39.2-.82-.15-.75-.59l.83-4.73L.17,7.27c-.33-.31-.16-.89.28-.95l4.9-.7L7.54,1.29c.2-.39.73-.39.93,0l2.18,4.33,4.9.7c.44.06.61.64.28.95l-3.52,3.36.83,4.73c.08.44-.36.79-.75.59l-4.39-2.26-4.39,2.26h0Z"/>
  <path class="cls-1" d="M24.61,15.94c-.39.2-.82-.15-.75-.59l.83-4.73-3.52-3.36c-.33-.31-.16-.89.28-.95l4.9-.7,2.18-4.33c.2-.39.73-.39.93,0l2.18,4.33,4.9.7c.44.06.61.64.28.95l-3.52,3.36.83,4.73c.08.44-.36.79-.75.59l-4.39-2.26-4.39,2.26h0Z"/>
  <path class="cls-1" d="M45.61,15.94c-.39.2-.82-.15-.75-.59l.83-4.73-3.52-3.36c-.33-.31-.16-.89.28-.95l4.9-.7,2.18-4.33c.2-.39.73-.39.93,0l2.18,4.33,4.9.7c.44.06.61.64.28.95l-3.52,3.36.83,4.73c.08.44-.36.79-.75.59l-4.39-2.26-4.39,2.26h0Z"/>
  <path class="cls-1" d="M66.61,15.94c-.39.2-.82-.15-.75-.59l.83-4.73-3.52-3.36c-.33-.31-.16-.89.28-.95l4.9-.7,2.18-4.33c.2-.39.73-.39.93,0l2.18,4.33,4.9.7c.44.06.61.64.28.95l-3.52,3.36.83,4.73c.08.44-.36.79-.75.59l-4.39-2.26-4.39,2.26h0Z"/>
  <path class="cls-1" d="M87.61,15.94c-.39.2-.82-.15-.75-.59l.83-4.73-3.52-3.36c-.33-.31-.16-.89.28-.95l4.9-.7,2.18-4.33c.2-.39.73-.39.93,0l2.18,4.33,4.9.7c.44.06.61.64.28.95l-3.52,3.36.83,4.73c.08.44-.36.79-.75.59l-4.39-2.26-4.39,2.26h0Z"/>
</svg>