<?xml version="1.0" encoding="UTF-8"?>
<svg id="Layer_1" data-name="Layer 1" xmlns="http://www.w3.org/2000/svg" viewBox="0 0 100 16">
  <defs>
    <style>
      .cls-1 {
        fill: #999;
      }

      .cls-1, .cls-2 {
        stroke-width: 0px;
      }

      .cls-2 {
        fill: #fa0;
      }
    </style>
  </defs>
  <path class="cls-1" d="M86.86,15.35c-.08.44.36.79.75.59l4.39-2.26,4.39,2.26c.39.2.82-.15.75-.59l-.83-4.73,3.52-3.36c.33-.31.16-.89-.28-.95l-4.9-.7-2.18-4.33c-.12-.26-.43-.37-.68-.24-.11.05-.19.14-.24.24l-2.18,4.33-4.9.7c-.44.06-.61.64-.28.95l3.52,3.36-.83,4.73h0ZM91.77,12.58l-3.69,1.89.69-3.96c.03-.19-.03-.37-.16-.51l-2.91-2.77,4.05-.58c.17-.03.32-.13.39-.29l1.84-3.66,1.85,3.66c.08.15.22.26.39.29l4.05.57-2.91,2.77c-.14.13-.2.32-.16.51l.69,3.96-3.69-1.89c-.14-.08-.32-.08-.46,0h0Z"/>
  <path class="cls-1" d="M65.86,15.35c-.08.44.36.79.75.59l4.39-2.26,4.39,2.26c.39.2.82-.15.75-.59l-.83-4.73,3.52-3.36c.33-.31.16-.89-.28-.95l-4.9-.7-2.18-4.33c-.12-.26-.43-.37-.68-.24-.11.05-.19.14-.24.24l-2.18,4.33-4.9.7c-.44.06-.61.64-.28.95l3.52,3.36-.83,4.73h0ZM70.77,12.58l-3.69,1.89.69-3.96c.03-.19-.03-.37-.16-.51l-2.91-2.77,4.05-.58c.17-.03.32-.13.39-.29l1.84-3.66,1.85,3.66c.08.15.22.26.39.29l4.05.57-2.91,2.77c-.14.13-.2.32-.16.51l.69,3.96-3.69-1.89c-.14-.08-.32-.08-.46,0h0Z"/>
  <path class="cls-2" d="M3.61,15.94c-.39.2-.82-.15-.75-.59l.83-4.73L.17,7.27c-.33-.31-.16-.89.28-.95l4.9-.7L7.54,1.29c.2-.39.73-.39.93,0l2.18,4.33,4.9.7c.44.06.61.64.28.95l-3.52,3.36.83,4.73c.08.44-.36.79-.75.59l-4.39-2.26-4.39,2.26h0Z"/>
  <path class="cls-2" d="M24.61,15.94c-.39.2-.82-.15-.75-.59l.83-4.73-3.52-3.36c-.33-.31-.16-.89.28-.95l4.9-.7,2.18-4.33c.2-.39.73-.39.93,0l2.18,4.33,4.9.7c.44.06.61.64.28.95l-3.52,3.36.83,4.73c.08.44-.36.79-.75.59l-4.39-2.26-4.39,2.26h0Z"/>
  <path class="cls-2" d="M45.61,15.94c-.39.2-.82-.15-.75-.59l.83-4.73-3.52-3.36c-.33-.31-.16-.89.28-.95l4.9-.7,2.18-4.33c.2-.39.73-.39.93,0l2.18,4.33,4.9.7c.44.06.61.64.28.95l-3.52,3.36.83,4.73c.08.44-.36.79-.75.59l-4.39-2.26-4.39,2.26h0Z"/>
</svg>